<!DOCTYPE svg PUBLIC "-//W3C//DTD SVG 1.1//EN" "http://www.w3.org/Graphics/SVG/1.1/DTD/svg11.dtd">
<!-- Uploaded to: SVG Repo, www.svgrepo.com, Transformed by: SVG Repo Mixer Tools -->
<svg version="1.1" id="Layer_1" xmlns="http://www.w3.org/2000/svg" xmlns:xlink="http://www.w3.org/1999/xlink" viewBox="0 0 512 512" xml:space="preserve" width="800px" height="800px" fill="#000000">
<g id="SVGRepo_bgCarrier" stroke-width="0"/>
<g id="SVGRepo_tracerCarrier" stroke-linecap="round" stroke-linejoin="round"/>
<g id="SVGRepo_iconCarrier"> <path style="fill:#458FDE;" d="M510.706,281.872C511.559,273.363,512,264.733,512,256C512,114.615,397.385,0,256,0S0,114.615,0,256 c0,131.576,99.27,239.949,226.996,254.355L510.706,281.872z"/> <path style="fill:#4A75C3;" d="M510.706,281.872l-59.27-59.27l-44.997,5.305L289.841,111.309L67.243,350.602l159.753,159.753 C236.518,511.429,246.192,512,256,512C388.651,512,497.734,411.106,510.706,281.872z"/> <polygon style="fill:#FFD652;" points="343.521,144.7 256.463,144.7 256.463,322.776 451.435,300.517 451.435,222.602 406.913,208.092 "/> <path style="fill:#FDBA4C;" d="M431.211,300.517c-13.17-13.706-31.659-22.261-52.124-22.261c-20.464,0-38.954,8.555-52.124,22.261 l-70.502-0.002l33.391,50.087l161.583,0.002v-50.087H431.211z"/> <polygon style="fill:#F7EDBC;" points="289.841,111.309 289.841,278.254 122.884,300.515 200.799,111.313 "/> <polygon style="fill:#FFFFFF;" points="178.537,133.57 178.537,300.515 67.243,278.254 67.243,111.309 156.277,111.309 "/> <rect x="156.282" y="111.315" style="fill:#FFD652;" width="44.522" height="83.468"/> <polygon style="fill:#CCCCCC;" points="289.852,278.254 67.243,278.254 67.243,300.515 184.113,328.341 289.852,300.514 "/> <rect x="67.239" y="300.511" style="fill:#B2B2B2;" width="222.609" height="50.087"/> <path style="fill:#383838;" d="M139.597,400.691l-30.052-50.087l30.052-50.087c27.618,0,50.087,22.469,50.087,50.087 C189.684,378.222,167.216,400.691,139.597,400.691z"/> <path style="fill:#4C4C4C;" d="M89.51,350.604c0,27.618,22.469,50.087,50.087,50.087V300.516 C111.979,300.517,89.51,322.986,89.51,350.604z"/> <path style="fill:#CCCCCC;" d="M139.597,378.43l-16.696-27.826l16.696-27.826c15.343,0,27.826,12.483,27.826,27.826 C167.423,365.948,154.94,378.43,139.597,378.43z"/> <path style="fill:#FFFFFF;" d="M111.771,350.604c0,15.343,12.483,27.826,27.826,27.826v-55.652 C124.253,322.778,111.771,335.261,111.771,350.604z"/> <path style="fill:#383838;" d="M379.087,400.691l-30.052-50.087l30.052-50.087c27.618,0,50.087,22.469,50.087,50.087 C429.174,378.222,406.705,400.691,379.087,400.691z"/> <path style="fill:#4C4C4C;" d="M328.999,350.604c0,27.618,22.469,50.087,50.087,50.087V300.516 C351.468,300.517,328.999,322.986,328.999,350.604z"/> <path style="fill:#CCCCCC;" d="M379.087,378.428l-16.696-27.826l16.696-27.826c15.343,0,27.826,12.483,27.826,27.826 C406.913,365.945,394.43,378.428,379.087,378.428z"/> <path style="fill:#FFFFFF;" d="M351.261,350.602c0,15.343,12.483,27.826,27.826,27.826v-55.652 C363.744,322.776,351.261,335.259,351.261,350.602z"/> </g>
</svg>