<svg width="24" height="24" viewBox="0 0 24 24" fill="none" xmlns="http://www.w3.org/2000/svg">
<path fill-rule="evenodd" clip-rule="evenodd" d="M19.231 7.10558C19.3035 7.08245 19.399 7.12872 19.4945 7.25595C19.4945 7.25595 19.4945 7.25595 23.8109 11.52C24.0631 11.7745 24.0631 12.16 23.8109 12.349C23.8109 12.349 23.8109 12.349 19.4945 16.6786C19.399 16.8058 19.3035 16.8367 19.231 16.7981C19.1584 16.7596 19.1125 16.6478 19.1125 16.4858V7.38317C19.1125 7.2251 19.1584 7.12872 19.231 7.10558Z" fill="#ED1C24"/>
<path fill-rule="evenodd" clip-rule="evenodd" d="M11.8471 0H12.1527L12.4468 0.123374C12.4468 0.123374 12.4468 0.123374 16.8893 4.58024C17.0803 4.8347 17.0153 5.02747 16.6983 5.02747C16.6983 5.02747 16.6983 5.02747 14.8571 5.02747C14.5401 5.02747 14.288 5.28193 14.288 5.60193C14.288 5.60193 14.288 5.60193 14.288 8.90988C14.288 9.22988 14.0321 9.48434 13.6501 9.48434C13.6501 9.48434 13.6501 9.48434 10.4147 9.48434C10.0976 9.48434 9.8417 9.22988 9.8417 8.90988C9.8417 8.90988 9.8417 8.90988 9.8417 5.60193C9.8417 5.28193 9.58959 5.02747 9.26872 5.02747H7.30151C6.98446 5.02747 6.91952 4.8347 7.11052 4.58024C7.11052 4.58024 7.11052 4.58024 11.5568 0.123374L11.8471 0Z" fill="#ED1C24"/>
<path fill-rule="evenodd" clip-rule="evenodd" d="M4.88748 7.00918C4.96769 7.04773 5.01735 7.15954 5.01735 7.32147V16.613C5.01735 16.775 4.96769 16.8714 4.88748 16.9022C4.81108 16.933 4.70031 16.9022 4.57043 16.8058C4.57043 16.8058 4.57043 16.8058 0.189082 12.3489C-0.0630273 12.16 -0.0630273 11.7745 0.189082 11.52C0.189082 11.52 0.189082 11.52 4.57043 7.1287C4.70031 7.00147 4.81108 6.97063 4.88748 7.00918Z" fill="#ED1C24"/>
<path fill-rule="evenodd" clip-rule="evenodd" d="M10.4147 14.3229C10.4147 14.3229 10.4147 14.3229 13.6501 14.3229C14.0321 14.3229 14.288 14.5773 14.288 14.8973C14.288 14.8973 14.288 14.8973 14.288 18.3981C14.288 18.7797 14.5401 19.0342 14.8571 19.0342H16.5722C16.8893 19.0342 17.0153 19.2231 16.7632 19.4159C16.7632 19.4159 16.7632 19.4159 12.4468 23.8072C12.3169 23.9344 12.1603 24 11.9999 24C11.8433 24 11.6829 23.9344 11.5568 23.8072C11.5568 23.8072 11.5568 23.8072 7.24039 19.4159C6.98446 19.2231 7.11052 19.0342 7.42756 19.0342C7.42756 19.0342 7.42756 19.0342 9.26872 19.0342C9.58959 19.0342 9.8417 18.7797 9.8417 18.3981C9.8417 18.3981 9.8417 18.3981 9.8417 14.8973C9.8417 14.5773 10.0976 14.3229 10.4147 14.3229Z" fill="#ED1C24"/>
</svg>
