<?xml version="1.0" encoding="utf-8"?>
<!-- Generator: Adobe Illustrator 25.0.0, SVG Export Plug-In . SVG Version: 6.00 Build 0)  -->
<svg version="1.1" id="Layer_1" xmlns="http://www.w3.org/2000/svg" xmlns:xlink="http://www.w3.org/1999/xlink" x="0px" y="0px"
	 viewBox="0 0 65 35" style="enable-background:new 0 0 65 35;" xml:space="preserve">
<style type="text/css">
	.st0{filter:url(#Adobe_OpacityMaskFilter);}
	.st1{fill:#020203;}
	.st2{fill:#040506;}
	.st3{fill:#06080A;}
	.st4{fill:#0A0C0F;}
	.st5{fill:#0F1014;}
	.st6{fill:#121418;}
	.st7{fill:#16181C;}
	.st8{fill:#1A1C20;}
	.st9{fill:#1E1F24;}
	.st10{fill:#222328;}
	.st11{fill:#25272C;}
	.st12{fill:#292A30;}
	.st13{fill:#2D2E34;}
	.st14{fill:#323338;}
	.st15{fill:#36373C;}
	.st16{fill:#3A3B40;}
	.st17{fill:#3F3F45;}
	.st18{fill:#434349;}
	.st19{fill:#48484D;}
	.st20{fill:#4C4C51;}
	.st21{fill:#515156;}
	.st22{fill:#56555B;}
	.st23{fill:#5B5A5F;}
	.st24{fill:#615F64;}
	.st25{fill:#666469;}
	.st26{fill:#6B696E;}
	.st27{fill:#706F73;}
	.st28{fill:#757479;}
	.st29{fill:#7B797E;}
	.st30{fill:#807F83;}
	.st31{fill:#868589;}
	.st32{fill:#8C8B8E;}
	.st33{fill:#929194;}
	.st34{fill:#98979A;}
	.st35{fill:#9E9DA0;}
	.st36{fill:#A5A3A6;}
	.st37{fill:#ABAAAC;}
	.st38{fill:#B2B0B2;}
	.st39{fill:#B8B7B9;}
	.st40{fill:#BFBEBF;}
	.st41{fill:#C6C5C6;}
	.st42{fill:#CDCCCC;}
	.st43{mask:url(#SVGID_1_);fill:#515151;}
	.st44{fill:#D6D6D6;}
	.st45{fill:#F1F1F1;}
	.st46{fill:url(#SVGID_2_);}
	.st47{fill:#231F20;}
</style>
<g>
	<g>
		<g>
			<path class="st47" d="M21.3,23.2c-5.5,0-10.7-0.7-14.7-2c-2-0.7-3.5-1.4-4.6-2.3c-0.6-0.5-1.1-1-1.4-1.5C0.2,16.7,0,16.1,0,15.5
				s0.2-1.3,0.6-1.9c0.3-0.5,0.8-1,1.4-1.5c1.1-0.9,2.7-1.6,4.6-2.3c3.9-1.3,9.1-2,14.7-2s10.7,0.7,14.7,2c2,0.7,3.5,1.4,4.6,2.3
				c0.6,0.5,1.1,1,1.4,1.5c0.4,0.6,0.6,1.2,0.6,1.9s-0.2,1.3-0.6,1.9c-0.3,0.5-0.8,1-1.4,1.5c-1.1,0.9-2.7,1.6-4.6,2.3
				C32,22.4,26.8,23.2,21.3,23.2z M21.3,9.7C16,9.7,11,10.4,7.2,11.6c-1.7,0.6-3.1,1.3-4.1,2c-0.6,0.4-1.2,1.1-1.2,1.9
				s0.7,1.4,1.2,1.9c0.9,0.7,2.3,1.4,4.1,2c3.7,1.2,8.7,1.9,14.1,1.9s10.3-0.7,14.1-1.9c1.7-0.6,3.1-1.3,4.1-2
				c0.6-0.4,1.2-1.1,1.2-1.9s-0.7-1.4-1.2-1.9c-0.9-0.7-2.3-1.4-4.1-2C31.6,10.4,26.6,9.7,21.3,9.7z"/>
		</g>
		<g>
			<path class="st47" d="M21.3,20.8c-3.6,0-7.1-0.5-9.7-1.3c-3.8-1.2-4.6-2.9-4.6-4c0-1.2,0.8-2.8,4.6-4c2.6-0.9,6-1.3,9.7-1.3
				s7.1,0.5,9.7,1.3c3.8,1.2,4.6,2.9,4.6,4c0,1.2-0.8,2.8-4.6,4C28.4,20.4,24.9,20.8,21.3,20.8z M21.3,12c-3.4,0-6.7,0.4-9.1,1.2
				C10,14,9,14.9,9,15.5s1,1.4,3.2,2.2c2.4,0.8,5.6,1.2,9.1,1.2s6.7-0.4,9.1-1.2c2.2-0.7,3.2-1.6,3.2-2.2s-1-1.4-3.2-2.2
				C28,12.5,24.7,12,21.3,12z"/>
		</g>
		<g>
			<path class="st47" d="M21.3,18.3c-1.6,0-3.2-0.2-4.3-0.6c-1.9-0.6-2.3-1.6-2.3-2.3s0.4-1.6,2.3-2.3c1.2-0.4,2.7-0.6,4.3-0.6
				c1.6,0,3.2,0.2,4.3,0.6c1.9,0.6,2.3,1.6,2.3,2.3s-0.4,1.6-2.3,2.3C24.4,18.1,22.9,18.3,21.3,18.3z M16.7,15.5
				c0.2,0.1,0.6,0.3,1.3,0.5c0.9,0.3,2.1,0.4,3.4,0.4c1.2,0,2.4-0.1,3.4-0.4c0.7-0.2,1.1-0.4,1.3-0.5c-0.2-0.1-0.6-0.3-1.3-0.5
				c-0.9-0.3-2.1-0.4-3.4-0.4c-1.2,0-2.4,0.1-3.4,0.4C17.2,15.1,16.9,15.3,16.7,15.5z M26,15.6L26,15.6L26,15.6z"/>
		</g>
		<g>
			<path class="st47" d="M41.6,23.2c-0.5,0-1-0.4-1-1v-6.7c0-0.5,0.4-1,1-1c0.5,0,1,0.4,1,1v6.7C42.5,22.7,42.1,23.2,41.6,23.2z"/>
		</g>
		<g>
			<path class="st47" d="M60.9,33H21.3c0,0,0,0,0,0c-5.5,0-10.7-0.7-14.6-2c-2-0.7-3.5-1.4-4.6-2.3c-0.6-0.5-1.1-1-1.4-1.5
				C0.2,26.6,0,26,0,25.3v-9.8c0-0.5,0.4-1,1-1s1,0.4,1,1v9.8c0,0.7,0.7,1.4,1.2,1.9c0.9,0.7,2.3,1.4,4.1,2
				c3.7,1.2,8.7,1.9,14.1,1.9c0,0,0,0,0,0h38.6v-7.9H21.4c-0.5,0-1-0.4-1-1c0-0.5,0.4-1,1-1h39.4c0.5,0,1,0.4,1,1V32
				C61.8,32.6,61.4,33,60.9,33z"/>
		</g>
		<g>
			<g>
				<path class="st47" d="M56.9,33c-0.5,0-1-0.4-1-1v-2.6c0-0.5,0.4-1,1-1s1,0.4,1,1V32C57.9,32.6,57.5,33,56.9,33z"/>
			</g>
			<g>
				<path class="st47" d="M53.1,33c-0.5,0-1-0.4-1-1v-2.6c0-0.5,0.4-1,1-1s1,0.4,1,1V32C54.1,32.6,53.7,33,53.1,33z"/>
			</g>
			<g>
				<path class="st47" d="M49.3,33c-0.5,0-1-0.4-1-1v-2.6c0-0.5,0.4-1,1-1s1,0.4,1,1V32C50.3,32.6,49.8,33,49.3,33z"/>
			</g>
			<g>
				<path class="st47" d="M45.5,33c-0.5,0-1-0.4-1-1v-4.4c0-0.5,0.4-1,1-1s1,0.4,1,1V32C46.5,32.6,46,33,45.5,33z"/>
			</g>
			<g>
				<path class="st47" d="M41.7,33c-0.5,0-1-0.4-1-1v-2.6c0-0.5,0.4-1,1-1s1,0.4,1,1V32C42.6,32.6,42.2,33,41.7,33z"/>
			</g>
			<g>
				<path class="st47" d="M37.9,33c-0.5,0-1-0.4-1-1v-2.6c0-0.5,0.4-1,1-1s1,0.4,1,1V32C38.8,32.6,38.4,33,37.9,33z"/>
			</g>
			<g>
				<path class="st47" d="M34,33c-0.5,0-1-0.4-1-1v-2.6c0-0.5,0.4-1,1-1s1,0.4,1,1V32C35,32.6,34.6,33,34,33z"/>
			</g>
			<g>
				<path class="st47" d="M30.2,33c-0.5,0-1-0.4-1-1v-4.4c0-0.5,0.4-1,1-1s1,0.4,1,1V32C31.2,32.6,30.8,33,30.2,33z"/>
			</g>
			<g>
				<path class="st47" d="M26.4,33c-0.5,0-1-0.4-1-1v-2.6c0-0.5,0.4-1,1-1s1,0.4,1,1V32C27.4,32.6,26.9,33,26.4,33z"/>
			</g>
			<g>
				<path class="st47" d="M22.6,33c-0.5,0-1-0.4-1-1v-2.6c0-0.5,0.4-1,1-1c0.5,0,1,0.4,1,1V32C23.5,32.6,23.1,33,22.6,33z"/>
			</g>
			<g>
				<path class="st47" d="M18.8,32.9C18.7,32.9,18.7,32.9,18.8,32.9c-0.6,0-1-0.5-1-1l0.1-2.6c0-0.5,0.5-1,1-0.9c0.5,0,1,0.5,0.9,1
					L19.7,32C19.7,32.5,19.3,32.9,18.8,32.9z"/>
			</g>
			<g>
				<path class="st47" d="M15,32.7c0,0-0.1,0-0.1,0c-0.5-0.1-0.9-0.5-0.9-1.1l0.4-4c0.1-0.5,0.5-0.9,1.1-0.9
					c0.5,0.1,0.9,0.5,0.9,1.1l-0.4,4C15.9,32.3,15.4,32.7,15,32.7z"/>
			</g>
			<g>
				<path class="st47" d="M11.2,32.1c-0.1,0-0.1,0-0.2,0c-0.5-0.1-0.9-0.6-0.8-1.1l0.5-2.6c0.1-0.5,0.6-0.9,1.1-0.8
					c0.5,0.1,0.9,0.6,0.8,1.1l-0.5,2.6C12,31.8,11.6,32.1,11.2,32.1z"/>
			</g>
			<g>
				<path class="st47" d="M7.5,31.2c-0.1,0-0.2,0-0.3,0C6.7,31,6.4,30.5,6.5,30l0.8-2.5c0.2-0.5,0.7-0.8,1.2-0.6
					C9,27,9.3,27.5,9.2,28l-0.8,2.5C8.3,30.9,7.9,31.2,7.5,31.2z"/>
			</g>
			<g>
				<path class="st47" d="M3.9,29.8c-0.2,0-0.3,0-0.5-0.1c-0.5-0.3-0.6-0.8-0.4-1.3l1.2-2.3c0.3-0.5,0.8-0.6,1.3-0.4
					C6.1,25.9,6.3,26.5,6,27l-1.2,2.3C4.6,29.6,4.3,29.8,3.9,29.8z"/>
			</g>
		</g>
	</g>
	<g>
		<path class="st47" d="M64,33h-3.7c-0.5,0-1-0.4-1-1c0-0.5,0.4-1,1-1h2.8v-7.9h-2.2c-0.5,0-1-0.4-1-1s0.4-1,1-1H64c0.5,0,1,0.4,1,1
			V32C65,32.6,64.6,33,64,33z"/>
	</g>
</g>
</svg>
