<?xml version="1.0" encoding="UTF-8"?>
<!DOCTYPE svg PUBLIC "-//W3C//DTD SVG 1.1//EN" "http://www.w3.org/Graphics/SVG/1.1/DTD/svg11.dtd">
<svg xmlns="http://www.w3.org/2000/svg" version="1.1" width="512px" height="512px" style="shape-rendering:geometricPrecision; text-rendering:geometricPrecision; image-rendering:optimizeQuality; fill-rule:evenodd; clip-rule:evenodd" xmlns:xlink="http://www.w3.org/1999/xlink">
<g><path style="opacity:0.984" fill="#e8ecf3" d="M 307.5,92.5 C 306.848,96.3107 304.848,99.144 301.5,101C 270.5,101.667 239.5,101.667 208.5,101C 205.926,98.6824 204.259,95.849 203.5,92.5C 203.018,66.0776 203.518,39.7443 205,13.5C 207.243,11.718 209.743,11.218 212.5,12C 218.59,15.4604 224.423,19.2938 230,23.5C 238.156,17.4897 246.656,12.1564 255.5,7.5C 264.344,12.1564 272.844,17.4897 281,23.5C 286.577,19.2938 292.41,15.4604 298.5,12C 301.257,11.218 303.757,11.718 306,13.5C 307.482,39.7443 307.982,66.0776 307.5,92.5 Z"/></g>
<g><path style="opacity:0.996" fill="#273d5c" d="M 203.5,92.5 C 204.259,95.849 205.926,98.6824 208.5,101C 239.5,101.667 270.5,101.667 301.5,101C 304.848,99.144 306.848,96.3107 307.5,92.5C 318.549,92.1499 329.549,92.6499 340.5,94C 348.693,96.8593 354.193,102.359 357,110.5C 358.376,119.098 358.876,127.765 358.5,136.5C 358.5,244.5 358.5,352.5 358.5,460.5C 357.667,402.001 357.167,343.335 357,284.5C 355.186,289.964 352.02,294.464 347.5,298C 324.777,308.879 300.777,314.546 275.5,315C 244.72,317.069 214.386,314.402 184.5,307C 174.399,304.368 165.566,299.535 158,292.5C 156.667,289.833 155.333,287.167 154,284.5C 153.833,343.335 153.333,402.001 152.5,460.5C 152.5,352.5 152.5,244.5 152.5,136.5C 152.124,127.765 152.624,119.098 154,110.5C 157.705,99.7963 165.205,93.9629 176.5,93C 185.494,92.5002 194.494,92.3336 203.5,92.5 Z"/></g>
<g><path style="opacity:0.997" fill="#344e6f" d="M 152.5,136.5 C 152.5,244.5 152.5,352.5 152.5,460.5C 143.325,453.498 133.992,446.665 124.5,440C 121.836,437.331 120.002,434.164 119,430.5C 118.333,342.167 118.333,253.833 119,165.5C 120.306,161.187 122.806,157.687 126.5,155C 135.049,148.569 143.716,142.402 152.5,136.5 Z"/></g>
<g><path style="opacity:1" fill="#4dbff8" d="M 191.5,136.5 C 234.168,136.333 276.835,136.5 319.5,137C 320.667,138.167 321.833,139.333 323,140.5C 323.986,174.918 323.653,209.252 322,243.5C 321.167,244.333 320.333,245.167 319.5,246C 276.833,246.667 234.167,246.667 191.5,246C 189.951,244.786 188.785,243.286 188,241.5C 187.333,207.833 187.333,174.167 188,140.5C 189.376,139.295 190.542,137.962 191.5,136.5 Z"/></g>
<g><path style="opacity:0.998" fill="#344f70" d="M 358.5,136.5 C 367.284,142.402 375.951,148.569 384.5,155C 388.194,157.687 390.694,161.187 392,165.5C 392.667,253.833 392.667,342.167 392,430.5C 390.998,434.164 389.164,437.331 386.5,440C 377.008,446.665 367.675,453.498 358.5,460.5C 358.5,352.5 358.5,244.5 358.5,136.5 Z"/></g>
<g><path style="opacity:1" fill="#1d2e49" d="M 192.5,272.5 C 197.511,272.334 202.511,272.501 207.5,273C 212.609,276.366 213.776,280.866 211,286.5C 210.097,287.701 208.931,288.535 207.5,289C 201.719,289.903 196.053,289.57 190.5,288C 186.077,282.133 186.743,276.966 192.5,272.5 Z"/></g>
<g><path style="opacity:1" fill="#1d2e49" d="M 243.5,272.5 C 251.174,272.334 258.841,272.5 266.5,273C 274.157,277.787 274.49,283.121 267.5,289C 259.5,289.667 251.5,289.667 243.5,289C 236.87,283.55 236.87,278.05 243.5,272.5 Z"/></g>
<g><path style="opacity:1" fill="#1d2e49" d="M 303.5,272.5 C 309.762,271.872 315.762,272.705 321.5,275C 323.934,278.716 324.101,282.549 322,286.5C 321.097,287.701 319.931,288.535 318.5,289C 312.719,289.903 307.053,289.57 301.5,288C 298.197,284.205 297.697,280.038 300,275.5C 301.518,274.837 302.685,273.837 303.5,272.5 Z"/></g>
<g><path style="opacity:0.996" fill="#1d2e49" d="M 358.5,460.5 C 358.876,469.235 358.376,477.902 357,486.5C 353.833,493.667 348.667,498.833 341.5,502C 312.88,503.151 284.213,503.651 255.5,503.5C 226.787,503.651 198.12,503.151 169.5,502C 162.333,498.833 157.167,493.667 154,486.5C 152.624,477.902 152.124,469.235 152.5,460.5C 153.333,402.001 153.833,343.335 154,284.5C 155.333,287.167 156.667,289.833 158,292.5C 165.566,299.535 174.399,304.368 184.5,307C 214.386,314.402 244.72,317.069 275.5,315C 300.777,314.546 324.777,308.879 347.5,298C 352.02,294.464 355.186,289.964 357,284.5C 357.167,343.335 357.667,402.001 358.5,460.5 Z"/></g>
<g><path style="opacity:1" fill="#e5e9f1" d="M 192.5,349.5 C 200.174,349.334 207.841,349.5 215.5,350C 223.41,355.248 223.41,360.581 215.5,366C 207.833,366.667 200.167,366.667 192.5,366C 187.391,362.634 186.224,358.134 189,352.5C 190.145,351.364 191.312,350.364 192.5,349.5 Z"/></g>
<g><path style="opacity:1" fill="#e5eaf1" d="M 243.5,349.5 C 251.507,349.334 259.507,349.5 267.5,350C 271.861,352.226 273.361,355.726 272,360.5C 270.833,363 269,364.833 266.5,366C 258.833,366.667 251.167,366.667 243.5,366C 236.843,360.327 236.843,354.827 243.5,349.5 Z"/></g>
<g><path style="opacity:1" fill="#e5e9f1" d="M 294.5,349.5 C 302.507,349.334 310.507,349.5 318.5,350C 323.069,352.541 324.569,356.375 323,361.5C 321.891,363.815 320.057,365.315 317.5,366C 310.167,366.667 302.833,366.667 295.5,366C 287.948,360.876 287.615,355.376 294.5,349.5 Z"/></g>
<g><path style="opacity:1" fill="#e6eaf1" d="M 192.5,383.5 C 200.174,383.334 207.841,383.5 215.5,384C 223.5,389.333 223.5,394.667 215.5,400C 207.833,400.667 200.167,400.667 192.5,400C 187.391,396.634 186.224,392.134 189,386.5C 190.145,385.364 191.312,384.364 192.5,383.5 Z"/></g>
<g><path style="opacity:1" fill="#e6eaf2" d="M 243.5,383.5 C 251.174,383.334 258.841,383.5 266.5,384C 272.749,386.955 274.083,391.455 270.5,397.5C 269.335,398.584 268.002,399.417 266.5,400C 258.833,400.667 251.167,400.667 243.5,400C 236.868,394.423 236.868,388.923 243.5,383.5 Z"/></g>
<g><path style="opacity:1" fill="#e5eaf1" d="M 294.5,383.5 C 303.25,383.09 311.916,383.59 320.5,385C 323.265,387.995 324.098,391.495 323,395.5C 322.167,397.667 320.667,399.167 318.5,400C 310.5,400.667 302.5,400.667 294.5,400C 287.868,394.423 287.868,388.923 294.5,383.5 Z"/></g>
<g><path style="opacity:1" fill="#e5e9f0" d="M 192.5,417.5 C 200.174,417.334 207.841,417.5 215.5,418C 223.074,422.874 223.408,428.208 216.5,434C 208.5,434.667 200.5,434.667 192.5,434C 187.391,430.634 186.224,426.134 189,420.5C 190.518,419.837 191.685,418.837 192.5,417.5 Z"/></g>
<g><path style="opacity:1" fill="#e5e9f0" d="M 243.5,417.5 C 251.943,417.062 260.277,417.562 268.5,419C 272.816,422.385 273.65,426.552 271,431.5C 270.097,432.701 268.931,433.535 267.5,434C 258.73,434.94 250.064,434.607 241.5,433C 238.735,430.005 237.902,426.505 239,422.5C 240.707,420.963 242.207,419.296 243.5,417.5 Z"/></g>
<g><path style="opacity:1" fill="#e5e9f0" d="M 295.5,417.5 C 302.841,417.334 310.174,417.5 317.5,418C 322.924,420.017 324.758,423.85 323,429.5C 322.167,431.667 320.667,433.167 318.5,434C 310.5,434.667 302.5,434.667 294.5,434C 287.657,428.052 287.991,422.552 295.5,417.5 Z"/></g>
<g><path style="opacity:1" fill="#e02e4b" d="M 193.5,451.5 C 201.585,451.099 209.585,451.599 217.5,453C 222.952,458.4 222.619,463.4 216.5,468C 208.5,468.667 200.5,468.667 192.5,468C 187.931,465.459 186.431,461.625 188,456.5C 189.73,454.598 191.563,452.931 193.5,451.5 Z"/></g>
<g><path style="opacity:1" fill="#e3b32e" d="M 244.5,451.5 C 251.841,451.334 259.174,451.5 266.5,452C 271.945,454.11 273.778,457.944 272,463.5C 271.167,465.667 269.667,467.167 267.5,468C 259.5,468.667 251.5,468.667 243.5,468C 238.931,465.459 237.431,461.625 239,456.5C 240.73,454.598 242.563,452.931 244.5,451.5 Z"/></g>
<g><path style="opacity:1" fill="#69bd48" d="M 295.5,451.5 C 302.841,451.334 310.174,451.5 317.5,452C 322.904,454.083 324.737,457.916 323,463.5C 322.167,465.667 320.667,467.167 318.5,468C 310.5,468.667 302.5,468.667 294.5,468C 287.713,462.18 288.047,456.68 295.5,451.5 Z"/></g>
</svg>
