<svg width="24" height="24" viewBox="0 0 24 24" fill="none" xmlns="http://www.w3.org/2000/svg">
<path d="M19.3036 13.7778C19.303 13.7777 11.5926 11.9796 11.5926 11.9796C9.2944 11.4436 7.85272 9.08916 8.37265 6.72067C8.89289 4.35219 11.1776 2.86683 13.4758 3.40263C15.7742 3.93862 17.2157 6.29306 16.6957 8.66139C16.4352 9.84717 15.7323 10.8107 14.8069 11.411C14.8067 11.411 14.8045 11.413 14.8036 11.4134C14.7764 11.4336 14.7588 11.4663 14.7588 11.5032C14.7588 11.5549 14.7934 11.5983 14.8402 11.6099C14.8403 11.61 18.2702 12.4093 18.2708 12.4093C18.3525 12.4284 18.4372 12.3959 18.4873 12.3277C18.4876 12.327 18.4875 12.3275 18.4875 12.3275C19.4324 11.039 20 9.43126 20 7.69232C20 3.5971 16.8953 0.25038 12.9791 0.0126762C12.9442 0.0106869 12.732 0.00214386 12.6603 0.001091C10.9264 -0.0269604 9.16837 0.48539 7.63961 1.5887C3.77892 4.37443 2.84091 9.85767 5.54386 13.836L12.4038 23.9322C12.4331 23.9733 12.4803 24 12.5332 24C12.5866 24 12.6339 23.9729 12.6631 23.9314C12.6631 23.9314 19.3994 14.0315 19.4 14.0306C19.4172 14.0044 19.4274 13.9726 19.4274 13.9384C19.4274 13.8601 19.3746 13.7946 19.3036 13.7778Z" fill="#FABC26"/>
</svg>
