<?xml version="1.0" encoding="UTF-8"?>
<!DOCTYPE svg PUBLIC "-//W3C//DTD SVG 1.1//EN" "http://www.w3.org/Graphics/SVG/1.1/DTD/svg11.dtd">
<svg xmlns="http://www.w3.org/2000/svg" version="1.1" width="128px" height="128px" style="shape-rendering:geometricPrecision; text-rendering:geometricPrecision; image-rendering:optimizeQuality; fill-rule:evenodd; clip-rule:evenodd" xmlns:xlink="http://www.w3.org/1999/xlink">
<g><path style="opacity:0.964" fill="#4d64ce" d="M 11.5,-0.5 C 13.5,-0.5 15.5,-0.5 17.5,-0.5C 20.3031,3.48528 19.6364,6.98528 15.5,10C 42.1646,10.5 68.8313,10.6666 95.5,10.5C 117.053,16.918 125.22,31.2513 120,53.5C 115.18,64.8218 106.68,71.1551 94.5,72.5C 92.3843,70.9119 92.051,68.9119 93.5,66.5C 95.1955,65.8256 96.8621,65.1589 98.5,64.5C 113.341,61.136 119.841,51.8027 118,36.5C 115.649,29.4808 111.149,24.3141 104.5,21C 74.8947,19.3573 45.2281,19.024 15.5,20C 20.9587,23.9405 20.792,27.4405 15,30.5C 13.7753,30.1377 12.6086,29.6377 11.5,29C 7.63104,24.963 3.63104,21.1296 -0.5,17.5C -0.5,15.5 -0.5,13.5 -0.5,11.5C 3.83333,7.83333 7.83333,3.83333 11.5,-0.5 Z"/></g>
<g><path style="opacity:1" fill="#3d58be" d="M 95.5,10.5 C 112.078,10.7742 122.745,18.7742 127.5,34.5C 127.5,39.5 127.5,44.5 127.5,49.5C 123.444,63.5497 114.111,71.5497 99.5,73.5C 97.5853,73.7845 95.9187,73.4511 94.5,72.5C 106.68,71.1551 115.18,64.8218 120,53.5C 125.22,31.2513 117.053,16.918 95.5,10.5 Z"/></g>
<g><path style="opacity:0.971" fill="#a7b2bc" d="M 65.5,30.5 C 70.0372,32.1977 73.5372,35.1977 76,39.5C 76.6667,47.8333 76.6667,56.1667 76,64.5C 75.3292,65.2524 74.4959,65.5858 73.5,65.5C 72.8333,61.8333 72.1667,58.1667 71.5,54.5C 71.8,49.9014 71.4667,45.4014 70.5,41C 65.8452,40.5008 61.1785,40.3342 56.5,40.5C 54.2075,40.2436 52.0408,40.5769 50,41.5C 49.8034,49.9112 49.3034,58.2446 48.5,66.5C 47.5416,66.0472 46.7083,65.3805 46,64.5C 45.5017,61.1832 45.335,57.8499 45.5,54.5C 41.7546,37.5906 48.4213,29.5906 65.5,30.5 Z M 56.5,40.5 C 61.1785,40.3342 65.8452,40.5008 70.5,41C 71.4667,45.4014 71.8,49.9014 71.5,54.5C 66.1667,54.5 60.8333,54.5 55.5,54.5C 55.2256,49.737 55.559,45.0704 56.5,40.5 Z"/></g>
<g><path style="opacity:1" fill="#919daa" d="M 65.5,30.5 C 71.3463,30.1641 76.1796,32.1641 80,36.5C 81.4101,42.3792 81.9101,48.3792 81.5,54.5C 81.5,55.1667 81.5,55.8333 81.5,56.5C 81.6641,59.1873 81.4974,61.854 81,64.5C 78.6431,66.6458 76.1431,66.9791 73.5,65.5C 74.4959,65.5858 75.3292,65.2524 76,64.5C 76.6667,56.1667 76.6667,47.8333 76,39.5C 73.5372,35.1977 70.0372,32.1977 65.5,30.5 Z"/></g>
<g><path style="opacity:1" fill="#8d9aa5" d="M 56.5,40.5 C 55.559,45.0704 55.2256,49.737 55.5,54.5C 54.6773,57.977 54.1773,61.6437 54,65.5C 52.3005,66.4061 50.4672,66.7394 48.5,66.5C 49.3034,58.2446 49.8034,49.9112 50,41.5C 52.0408,40.5769 54.2075,40.2436 56.5,40.5 Z"/></g>
<g><path style="opacity:0.99" fill="#ed74b7" d="M 45.5,54.5 C 45.335,57.8499 45.5017,61.1832 46,64.5C 46.7083,65.3805 47.5416,66.0472 48.5,66.5C 50.4672,66.7394 52.3005,66.4061 54,65.5C 54.1773,61.6437 54.6773,57.977 55.5,54.5C 60.8333,54.5 66.1667,54.5 71.5,54.5C 72.1667,58.1667 72.8333,61.8333 73.5,65.5C 76.1431,66.9791 78.6431,66.6458 81,64.5C 81.4974,61.854 81.6641,59.1873 81.5,56.5C 82.4959,56.4142 83.3292,56.7476 84,57.5C 87.5924,80.0974 90.259,102.764 92,125.5C 91.2828,126.044 90.7828,126.711 90.5,127.5C 68.1667,127.5 45.8333,127.5 23.5,127.5C 22.0051,125.669 21.3384,123.502 21.5,121C 24.1465,99.8077 26.9799,78.641 30,57.5C 30.8333,56.6667 31.6667,55.8333 32.5,55C 36.8206,54.501 41.1539,54.3343 45.5,54.5 Z"/></g>
<g><path style="opacity:1" fill="#e65aaa" d="M 81.5,54.5 C 85.8461,54.3343 90.1794,54.501 94.5,55C 96.9249,57.6673 98.2582,60.834 98.5,64.5C 96.8621,65.1589 95.1955,65.8256 93.5,66.5C 92.051,68.9119 92.3843,70.9119 94.5,72.5C 95.9187,73.4511 97.5853,73.7845 99.5,73.5C 101.458,89.33 103.458,105.163 105.5,121C 105.662,123.502 104.995,125.669 103.5,127.5C 99.1667,127.5 94.8333,127.5 90.5,127.5C 90.7828,126.711 91.2828,126.044 92,125.5C 90.259,102.764 87.5924,80.0974 84,57.5C 83.3292,56.7476 82.4959,56.4142 81.5,56.5C 81.5,55.8333 81.5,55.1667 81.5,54.5 Z"/></g>
<g><path style="opacity:1" fill="#fef7e1" d="M 68.5,86.5 C 69.4731,88.0683 69.6397,89.735 69,91.5C 67.3149,93.0175 65.8149,94.6841 64.5,96.5C 65.8149,98.3159 67.3149,99.9825 69,101.5C 69.6397,103.265 69.4731,104.932 68.5,106.5C 67.0892,105.092 65.4225,104.092 63.5,103.5C 61.1108,105.059 58.6108,106.393 56,107.5C 53.5,107.667 52.3333,106.5 52.5,104C 53.5202,101.132 55.1868,98.6323 57.5,96.5C 56.1851,94.6841 54.6851,93.0175 53,91.5C 52.1667,87 54,85.1667 58.5,86C 60.0175,87.6851 61.6841,89.1851 63.5,90.5C 65.1856,89.1431 66.8523,87.8098 68.5,86.5 Z"/></g>
<g><path style="opacity:1" fill="#fbedc4" d="M 68.5,106.5 C 69.4731,104.932 69.6397,103.265 69,101.5C 67.3149,99.9825 65.8149,98.3159 64.5,96.5C 65.8149,94.6841 67.3149,93.0175 69,91.5C 69.6397,89.735 69.4731,88.0683 68.5,86.5C 69.9464,85.3871 71.6131,85.2204 73.5,86C 74.0968,87.0617 74.4302,88.2284 74.5,89.5C 73.8437,92.3329 72.5104,94.8329 70.5,97C 71.2703,98.7748 72.437,100.275 74,101.5C 75.2052,104.868 74.2052,107.202 71,108.5C 69.699,108.361 68.8656,107.695 68.5,106.5 Z"/></g>
</svg>
