<?xml version="1.0" encoding="UTF-8"?>
<!DOCTYPE svg PUBLIC "-//W3C//DTD SVG 1.1//EN" "http://www.w3.org/Graphics/SVG/1.1/DTD/svg11.dtd">
<!-- Creator: CorelDRAW -->
<svg xmlns="http://www.w3.org/2000/svg" xml:space="preserve" width="43.1253mm" height="18.0042mm" version="1.1" style="shape-rendering:geometricPrecision; text-rendering:geometricPrecision; image-rendering:optimizeQuality; fill-rule:evenodd; clip-rule:evenodd"
viewBox="0 0 4312.52 1800.42"
 xmlns:xlink="http://www.w3.org/1999/xlink"
 xmlns:xodm="http://www.corel.com/coreldraw/odm/2003">
 <defs>
  <style type="text/css">
   <![CDATA[
    .fil0 {fill:white}
    .fil2 {fill:url(#id0)}
    .fil3 {fill:url(#id1)}
    .fil1 {fill:url(#id2)}
   ]]>
  </style>
  <linearGradient id="id0" gradientUnits="userSpaceOnUse" x1="2268.42" y1="814.37" x2="2042.89" y2="-24.94">
   <stop offset="0" style="stop-opacity:1; stop-color:#D6D6DC"/>
   <stop offset="0.701961" style="stop-opacity:1; stop-color:#FEFEFE"/>
   <stop offset="1" style="stop-opacity:1; stop-color:#FEFEFE"/>
  </linearGradient>
  <linearGradient id="id1" gradientUnits="userSpaceOnUse" x1="1826.94" y1="413.18" x2="2093.08" y2="413.18">
   <stop offset="0" style="stop-opacity:1; stop-color:#EF7C38"/>
   <stop offset="0.701961" style="stop-opacity:1; stop-color:#E84247"/>
   <stop offset="1" style="stop-opacity:1; stop-color:#E84247"/>
  </linearGradient>
  <linearGradient id="id2" gradientUnits="userSpaceOnUse" x1="1917.15" y1="651.25" x2="2592.77" y2="651.25">
   <stop offset="0" style="stop-opacity:1; stop-color:#003399"/>
   <stop offset="1" style="stop-opacity:1; stop-color:#000066"/>
  </linearGradient>
 </defs>
 <g id="Слой_x0020_1">
  <metadata id="CorelCorpID_0Corel-Layer"/>
  <path class="fil0" d="M300.99 1183.15l321.37 0 300.99 607.09 -218.5 0 -57.82 -101.21 -370.71 0 -57.81 101.21 -218.51 0 300.99 -607.09zm175.14 136.92l0 0 -28.91 0 -101.18 211.7 230.42 0 -100.33 -211.7z"/>
  <polygon class="fil0" points="1044,1183.15 833.14,1183.15 1140.08,1790.23 1424.05,1790.23 1731.01,1183.15 1520.14,1183.15 1290.57,1630.39 1282.07,1630.39 1273.57,1630.39 "/>
  <polygon class="fil0" points="1871.42,1790.23 1871.42,1182.31 2526.08,1182.31 2526.08,1329.39 2058.49,1329.39 2058.49,1413.56 2504.85,1413.56 2504.85,1559.83 2058.49,1559.83 2058.49,1643.16 2526.08,1643.16 2526.08,1790.23 "/>
  <path class="fil0" d="M3052.4 1173.81c173.45,0 280.29,14.45 320.53,43.35 35.14,24.95 52.72,91.24 52.72,198.97l-187.92 0c0,-35.16 -9.34,-57.55 -28.04,-67.17 -23.26,-11.92 -75.69,-17.88 -157.3,-17.88 -91.26,0 -144.83,7.09 -160.7,21.25 -15.88,14.19 -23.8,58.96 -23.8,134.36 0,74.81 7.92,119.32 23.8,133.49 15.87,14.15 69.44,21.25 160.7,21.25 82.75,0 134.46,-4.96 155.16,-14.87 20.69,-9.92 31.05,-33.31 31.05,-70.18l187.05 0c0,108.28 -17.01,174.63 -51.03,198.99 -40.23,28.91 -147.63,43.36 -322.23,43.36 -174.58,0 -280.16,-15.88 -316.71,-47.63 -36.57,-31.72 -54.84,-120.14 -54.84,-265.25 0,-144.54 17.55,-232.14 52.72,-262.73 37.98,-32.88 144.25,-49.31 318.83,-49.31l0.01 0z"/>
  <path class="fil0" d="M3947.75 1653.33c90.11,0 142.27,-1.43 156.45,-4.25 14.16,-2.82 21.24,-13.9 21.24,-33.14 0,-23.26 -9.92,-37.84 -29.76,-43.81 -19.84,-5.95 -69.14,-8.91 -147.93,-8.91 -155.89,0 -254.21,-11.33 -295.03,-34.01 -40.8,-22.65 -61.23,-78.8 -61.23,-168.35 0,-82.75 26.66,-135.75 79.94,-158.98 40.8,-17.56 131.48,-26.37 272.08,-26.37 125.26,0 204.6,3.4 238.05,10.2 78.8,15.88 118.2,82.75 118.2,200.65l-187.06 0c0,-32.29 -7.09,-51.13 -21.25,-56.54 -14.17,-5.37 -63.21,-8.06 -147.11,-8.06 -84.46,0 -133.2,1.55 -146.24,4.66 -13.03,3.11 -19.56,14.58 -19.56,34.44 0,20.96 11.06,34.57 33.17,40.79 22.11,6.26 67.46,9.4 136.04,9.4 154.17,0 253.51,12.15 298.03,36.54 44.45,24.37 66.74,80.48 66.74,168.35 0,81.06 -24.95,132.9 -74.84,155.58 -43.07,19.28 -140,28.9 -290.78,28.9 -116.2,0 -191.59,-2.53 -226.17,-7.65 -53.28,-7.94 -89.54,-26.5 -108.81,-55.69 -19.29,-29.19 -28.91,-79.77 -28.91,-151.76l187.06 0c0,34.02 7.35,53.85 22.08,59.52 14.74,5.67 66.61,8.49 155.6,8.49z"/>
  <path class="fil1" d="M2711.24 746.89c-133.21,95.09 -381.19,156.36 -552.9,153.38 -125.92,-2.17 -238.8,-15.56 -358.62,-56.02 108.37,-86.38 371.06,-341 561.3,-456.57 63.82,-44.03 117.44,-30.36 151.21,19.86 67.99,101.12 136.98,230.65 199.01,339.35z"/>
  <path class="fil2" d="M2807.82 662.46c-69.27,-121.47 -132.6,-238.23 -217.86,-357.69 -60.24,-84.4 -175.75,-104.27 -280.81,-33.01 -223.51,142.29 -430.51,346.7 -637.34,516.83 -156.83,-82.36 -256.09,-203.95 -256.09,-339.61 0,-247.92 331.62,-448.98 740.53,-448.98 408.9,0 740.5,201.06 740.5,448.98 0,77.3 -32.21,150.01 -88.93,213.48z"/>
  <path class="fil3" d="M1821 821.57l376.77 -814.54 -0.43 -0.68 -0.42 -0.64c-78.61,104.83 -158.03,208.36 -236.61,313.16 -90.57,120.78 -158.36,21.61 -220.59,33.82 -28.68,7.19 -40.64,33.05 -31.52,67.07l112.8 401.81z"/>
 </g>
</svg>
