<?xml version="1.0" encoding="UTF-8"?>
<!DOCTYPE svg PUBLIC "-//W3C//DTD SVG 1.1//EN" "http://www.w3.org/Graphics/SVG/1.1/DTD/svg11.dtd">
<svg xmlns="http://www.w3.org/2000/svg" version="1.1" width="118px" height="129px" style="shape-rendering:geometricPrecision; text-rendering:geometricPrecision; image-rendering:optimizeQuality; fill-rule:evenodd; clip-rule:evenodd" xmlns:xlink="http://www.w3.org/1999/xlink">
<g><path style="opacity:0.569" fill="#515151" d="M 53.5,-0.5 C 56.8333,-0.5 60.1667,-0.5 63.5,-0.5C 65.2852,10.2135 61.4519,12.8801 52,7.5C 51.1093,4.5024 51.6093,1.83574 53.5,-0.5 Z M 54.5,1.5 C 56.8568,1.33669 59.1902,1.50335 61.5,2C 62.5536,3.38762 62.7203,4.88762 62,6.5C 59.791,4.29355 57.291,3.96022 54.5,5.5C 53.3744,4.19165 53.3744,2.85832 54.5,1.5 Z"/></g>
<g><path style="opacity:0.964" fill="#e9e9e9" d="M 117.5,61.5 C 117.5,67.5 117.5,73.5 117.5,79.5C 110.942,105.058 94.9423,121.391 69.5,128.5C 62.1667,128.5 54.8333,128.5 47.5,128.5C 21.4311,122.028 5.43108,105.695 -0.5,79.5C -0.5,73.5 -0.5,67.5 -0.5,61.5C 7.25891,31.0796 26.9256,14.4129 58.5,11.5C 89.9189,14.6038 109.586,31.2704 117.5,61.5 Z"/></g>
<g><path style="opacity:1" fill="#cbe0c1" d="M 82.5,32.5 C 76.1075,42.9058 70.1075,53.5724 64.5,64.5C 63.5116,65.795 62.5116,67.1283 61.5,68.5C 60.8826,68.3893 60.3826,68.056 60,67.5C 59.5008,62.8452 59.3342,58.1785 59.5,53.5C 61.4147,53.7845 63.0813,53.4511 64.5,52.5C 64.8333,52.5 65.1667,52.5 65.5,52.5C 66.0953,45.0066 67.4286,37.5066 69.5,30C 69.3552,29.228 69.0219,28.5613 68.5,28C 73.6355,28.0692 78.3022,29.5692 82.5,32.5 Z"/></g>
<g><path style="opacity:1" fill="#b8dbaa" d="M 82.5,32.5 C 85.8103,34.4821 88.8103,36.8154 91.5,39.5C 82.7746,48.2291 73.7746,56.5624 64.5,64.5C 70.1075,53.5724 76.1075,42.9058 82.5,32.5 Z"/></g>
<g><path style="opacity:1" fill="#33ad13" d="M 51.5,39.5 C 55.8333,39.5 60.1667,39.5 64.5,39.5C 64.5,43.5 64.5,47.5 64.5,51.5C 62.5,51.5 60.5,51.5 58.5,51.5C 58.6728,46.6766 56.3394,44.6766 51.5,45.5C 51.5,43.5 51.5,41.5 51.5,39.5 Z"/></g>
<g><path style="opacity:1" fill="#85c75e" d="M 51.5,39.5 C 55.97,38.5139 60.6367,38.1805 65.5,38.5C 65.5,43.1667 65.5,47.8333 65.5,52.5C 65.1667,52.5 64.8333,52.5 64.5,52.5C 62.2646,52.7947 60.2646,52.4614 58.5,51.5C 60.5,51.5 62.5,51.5 64.5,51.5C 64.5,47.5 64.5,43.5 64.5,39.5C 60.1667,39.5 55.8333,39.5 51.5,39.5 Z"/></g>
<g><path style="opacity:1" fill="#d6e4cf" d="M 54.5,42.5 C 56.9479,41.5269 59.6146,41.1936 62.5,41.5C 62.6641,44.1873 62.4974,46.854 62,49.5C 60.9391,45.6052 58.4391,43.2719 54.5,42.5 Z"/></g>
<g><path style="opacity:1" fill="#000000" d="M 52.5,47.5 C 53.8333,47.5 55.1667,47.5 56.5,47.5C 56.5,48.8333 56.5,50.1667 56.5,51.5C 56.5,50.1667 56.5,48.8333 56.5,47.5C 55.1667,47.5 53.8333,47.5 52.5,47.5 Z"/></g>
<g><path style="opacity:1" fill="#a1d48c" d="M 91.5,39.5 C 94.1846,42.1897 96.5179,45.1897 98.5,48.5C 97.7326,49.172 97.0659,50.0053 96.5,51C 89.2187,55.474 81.552,59.1407 73.5,62C 69.6763,64.3331 66.0096,66.8331 62.5,69.5C 62.5,70.1667 62.1667,70.5 61.5,70.5C 61.5,69.8333 61.5,69.1667 61.5,68.5C 62.5116,67.1283 63.5116,65.795 64.5,64.5C 73.7746,56.5624 82.7746,48.2291 91.5,39.5 Z"/></g>
<g><path style="opacity:1" fill="#585957" d="M 52.5,47.5 C 52.5,48.8333 52.5,50.1667 52.5,51.5C 53.8333,51.5 55.1667,51.5 56.5,51.5C 55.0813,52.4511 53.4147,52.7845 51.5,52.5C 51.2155,50.5853 51.5489,48.9187 52.5,47.5 Z"/></g>
<g><path style="opacity:1" fill="#8acd70" d="M 98.5,48.5 C 104.158,56.904 105.824,65.904 103.5,75.5C 103.5,71.5 103.5,67.5 103.5,63.5C 102.91,62.234 102.41,60.9007 102,59.5C 89.9701,63.3822 77.8034,66.7155 65.5,69.5C 64.5,69.5 63.5,69.5 62.5,69.5C 66.0096,66.8331 69.6763,64.3331 73.5,62C 81.552,59.1407 89.2187,55.474 96.5,51C 97.0659,50.0053 97.7326,49.172 98.5,48.5 Z"/></g>
<g><path style="opacity:1" fill="#73c653" d="M 103.5,63.5 C 102.566,64.5676 102.232,65.901 102.5,67.5C 90.174,68.2774 77.8407,68.944 65.5,69.5C 77.8034,66.7155 89.9701,63.3822 102,59.5C 102.41,60.9007 102.91,62.234 103.5,63.5 Z"/></g>
<g><path style="opacity:1" fill="#c73b1d" d="M 59.5,70.5 C 59.5,71.1667 59.5,71.8333 59.5,72.5C 58.0047,72.5852 57.0047,71.9185 56.5,70.5C 57.6136,69.2241 58.6136,69.2241 59.5,70.5 Z"/></g>
<g><path style="opacity:1" fill="#55bf2f" d="M 103.5,63.5 C 103.5,67.5 103.5,71.5 103.5,75.5C 103.795,77.7354 103.461,79.7354 102.5,81.5C 102.657,80.1266 102.49,78.7932 102,77.5C 101.481,78.5156 100.647,79.1822 99.5,79.5C 88.5073,77.8682 77.6739,75.5349 67,72.5C 65.6244,72.6842 64.7911,73.3509 64.5,74.5C 63.5,73.8333 62.5,73.1667 61.5,72.5C 61.5,71.8333 61.5,71.1667 61.5,70.5C 62.1667,70.5 62.5,70.1667 62.5,69.5C 63.5,69.5 64.5,69.5 65.5,69.5C 77.8407,68.944 90.174,68.2774 102.5,67.5C 102.232,65.901 102.566,64.5676 103.5,63.5 Z"/></g>
<g><path style="opacity:1" fill="#eba191" d="M 59.5,70.5 C 60.1667,71.1667 60.8333,71.8333 61.5,72.5C 62.5,73.1667 63.5,73.8333 64.5,74.5C 68.1667,78.5 71.8333,82.5 75.5,86.5C 74.8333,86.5 74.5,86.8333 74.5,87.5C 69.1667,82.8333 64.1667,77.8333 59.5,72.5C 59.5,71.8333 59.5,71.1667 59.5,70.5 Z"/></g>
<g><path style="opacity:1" fill="#26b70a" d="M 102.5,81.5 C 100.718,89.4329 96.7181,95.7662 90.5,100.5C 85.5261,95.8613 80.5261,91.1947 75.5,86.5C 71.8333,82.5 68.1667,78.5 64.5,74.5C 64.7911,73.3509 65.6244,72.6842 67,72.5C 77.6739,75.5349 88.5073,77.8682 99.5,79.5C 100.647,79.1822 101.481,78.5156 102,77.5C 102.49,78.7932 102.657,80.1266 102.5,81.5 Z"/></g>
<g><path style="opacity:1" fill="#eac1b9" d="M 75.5,86.5 C 80.5261,91.1947 85.5261,95.8613 90.5,100.5C 89.5768,101.303 88.5768,101.47 87.5,101C 82.9633,96.6312 78.6299,92.1312 74.5,87.5C 74.5,86.8333 74.8333,86.5 75.5,86.5 Z"/></g>
</svg>
