<?xml version="1.0" encoding="UTF-8"?>
<!DOCTYPE svg PUBLIC "-//W3C//DTD SVG 1.1//EN" "http://www.w3.org/Graphics/SVG/1.1/DTD/svg11.dtd">
<svg xmlns="http://www.w3.org/2000/svg" version="1.1" width="550px" height="450px" style="shape-rendering:geometricPrecision; text-rendering:geometricPrecision; image-rendering:optimizeQuality; fill-rule:evenodd; clip-rule:evenodd;" xmlns:xlink="http://www.w3.org/1999/xlink">
<g><path style="opacity:0.975" fill="#2bb673" d="M 454.5,156.5 C 440.54,140.692 427.04,124.358 414,107.5C 410.08,101.289 404.58,99.1226 397.5,101C 380.287,114.759 362.954,128.259 345.5,141.5C 328.135,143.224 316.802,152.224 311.5,168.5C 310.833,168.5 310.5,168.833 310.5,169.5C 300.462,178.873 290.129,187.873 279.5,196.5C 274.194,193.512 268.861,190.512 263.5,187.5C 262.479,186.998 262.312,186.332 263,185.5C 301.675,139.328 340.508,93.3284 379.5,47.5C 411.808,74.8038 444.142,102.137 476.5,129.5C 469.143,138.519 461.81,147.519 454.5,156.5 Z"/></g>
<g><path style="opacity:0.992" fill="#ca6262" d="M 454.5,156.5 C 462.786,167.292 471.286,177.959 480,188.5C 482.147,193.327 481.814,197.994 479,202.5C 431.123,242.045 382.957,281.212 334.5,320C 329.314,322.226 324.314,321.893 319.5,319C 315.46,314.406 311.794,309.573 308.5,304.5C 294.787,288.122 281.453,271.455 268.5,254.5C 275.289,256.261 282.122,257.928 289,259.5C 301.404,258.247 309.904,251.913 314.5,240.5C 316.047,238.193 316.713,235.527 316.5,232.5C 316.495,230.304 316.162,228.304 315.5,226.5C 313.93,220.875 310.93,216.042 306.5,212C 297.799,206.316 288.799,201.149 279.5,196.5C 290.129,187.873 300.462,178.873 310.5,169.5C 311.167,169.5 311.5,169.167 311.5,168.5C 323.206,159.979 334.54,150.979 345.5,141.5C 362.954,128.259 380.287,114.759 397.5,101C 404.58,99.1226 410.08,101.289 414,107.5C 427.04,124.358 440.54,140.692 454.5,156.5 Z"/></g>
<g><path style="opacity:0.972" fill="#fdcb3c" d="M 240.5,113.5 C 258.916,115.68 277.25,118.514 295.5,122C 297.941,122.036 299.941,122.869 301.5,124.5C 288.645,139.521 275.978,154.687 263.5,170C 257.61,171.245 251.61,171.912 245.5,172C 237.926,176.874 237.592,182.208 244.5,188C 261.167,197.333 277.833,206.667 294.5,216C 306.169,222.58 308.669,231.746 302,243.5C 298.314,247.258 293.814,249.258 288.5,249.5C 265.741,242.636 243.075,235.469 220.5,228C 217.833,226.333 215.167,224.667 212.5,223C 207.468,217.633 202.135,212.633 196.5,208C 193.5,207.333 190.5,207.333 187.5,208C 178.214,210.489 168.881,212.655 159.5,214.5C 159.5,187.167 159.5,159.833 159.5,132.5C 163.182,132.665 166.848,132.499 170.5,132C 193.819,125.172 217.152,119.006 240.5,113.5 Z"/></g>
<g><path style="opacity:0.943" fill="#fdcb3c" d="M 122.5,123.5 C 131.167,123.5 139.833,123.5 148.5,123.5C 148.5,159.5 148.5,195.5 148.5,231.5C 143.167,231.5 137.833,231.5 132.5,231.5C 128.867,195.532 125.533,159.532 122.5,123.5 Z"/></g>
<g><path style="opacity:1" fill="#f4dedb" d="M 396.5,123.5 C 403.494,123.415 405.161,126.248 401.5,132C 400.5,132.667 399.5,132.667 398.5,132C 397.696,130.229 396.529,128.729 395,127.5C 394.7,125.934 395.2,124.601 396.5,123.5 Z"/></g>
<g><path style="opacity:1" fill="#c55453" d="M 396.5,125.5 C 400.029,124.889 401.862,126.223 402,129.5C 399.075,130.12 397.242,128.786 396.5,125.5 Z"/></g>
<g><path style="opacity:1" fill="#c75b59" d="M 390.5,129.5 C 392.912,129.694 393.912,131.027 393.5,133.5C 391.738,132.738 390.738,131.404 390.5,129.5 Z"/></g>
<g><path style="opacity:1" fill="#f3dbd8" d="M 390.5,129.5 C 391.601,128.402 392.934,128.235 394.5,129C 395.255,131.133 396.588,132.8 398.5,134C 396.803,134.384 395.137,134.218 393.5,133.5C 393.912,131.027 392.912,129.694 390.5,129.5 Z"/></g>
<g><path style="opacity:1" fill="#f4dedd" d="M 390.5,129.5 C 390.738,131.404 391.738,132.738 393.5,133.5C 395.19,137.187 394.69,137.854 392,135.5C 391.028,133.695 389.861,132.028 388.5,130.5C 388.957,129.702 389.624,129.369 390.5,129.5 Z"/></g>
<g><path style="opacity:1" fill="#f3ddda" d="M 384.5,133.5 C 387.516,134.343 390.183,135.843 392.5,138C 389.667,138.167 388.167,139.667 388,142.5C 385.95,139.852 384.784,136.852 384.5,133.5 Z"/></g>
<g><path style="opacity:1" fill="#c4524f" d="M 386.5,135.5 C 388.085,136.002 388.585,137.002 388,138.5C 386.961,137.756 386.461,136.756 386.5,135.5 Z"/></g>
<g><path style="opacity:1" fill="#f7e6e4" d="M 380.5,136.5 C 381.043,136.56 381.376,136.893 381.5,137.5C 378.58,140.571 379.08,142.905 383,144.5C 384.261,144.241 385.261,143.574 386,142.5C 386.617,143.449 386.451,144.282 385.5,145C 377.897,145.272 376.231,142.438 380.5,136.5 Z"/></g>
<g><path style="opacity:1" fill="#fdfbfb" d="M 447.5,171.5 C 448.496,171.414 449.329,171.748 450,172.5C 454.31,178.311 458.81,183.977 463.5,189.5C 457.492,194.673 451.325,199.673 445,204.5C 439.148,199.159 433.982,193.159 429.5,186.5C 435.544,181.447 441.544,176.447 447.5,171.5 Z"/></g>
<g><path style="opacity:1" fill="#f4dfdd" d="M 399.5,189.5 C 400.75,189.577 401.583,190.244 402,191.5C 403.039,193.901 403.206,196.234 402.5,198.5C 401.708,196.535 401.041,194.535 400.5,192.5C 398.997,192.165 397.664,192.165 396.5,192.5C 397.34,191.265 398.34,190.265 399.5,189.5 Z"/></g>
<g><path style="opacity:1" fill="#fdfafa" d="M 420.5,193.5 C 434.244,192.399 439.411,198.399 436,211.5C 427.331,220.166 419.998,219.166 414,208.5C 412.908,202.022 415.075,197.022 420.5,193.5 Z"/></g>
<g><path style="opacity:1" fill="#f6e3e1" d="M 392.5,194.5 C 396.531,194.034 398.531,195.867 398.5,200C 398.491,201.404 397.991,202.57 397,203.5C 397,202.167 397,200.833 397,199.5C 391.906,201.237 390.406,199.571 392.5,194.5 Z"/></g>
<g><path style="opacity:1" fill="#c75956" d="M 392.5,196.5 C 393.5,196.5 394.5,196.5 395.5,196.5C 394.754,200.31 393.754,200.31 392.5,196.5 Z"/></g>
<g><path style="opacity:1" fill="#f2d9d7" d="M 386.5,198.5 C 387.239,198.369 387.906,198.536 388.5,199C 387.018,202.757 387.684,203.257 390.5,200.5C 393.926,202.26 394.259,204.426 391.5,207C 388.098,207.282 386.098,205.615 385.5,202C 385.989,200.862 386.322,199.695 386.5,198.5 Z"/></g>
<g><path style="opacity:1" fill="#c75b58" d="M 389.5,202.5 C 391.048,202.821 391.715,203.821 391.5,205.5C 388.752,205.598 388.086,204.598 389.5,202.5 Z"/></g>
<g><path style="opacity:1" fill="#f3ddda" d="M 380.5,203.5 C 381.552,203.351 382.552,203.517 383.5,204C 384.333,205.5 385.5,206.667 387,207.5C 387.359,211.48 385.692,212.813 382,211.5C 379.887,209.007 379.387,206.341 380.5,203.5 Z"/></g>
<g><path style="opacity:1" fill="#c24d48" d="M 381.5,204.5 C 382.573,205.251 382.74,206.251 382,207.5C 380.272,206.648 380.105,205.648 381.5,204.5 Z"/></g>
<g><path style="opacity:1" fill="#c4514d" d="M 383.5,207.5 C 385.465,207.948 385.798,208.948 384.5,210.5C 383.614,209.675 383.281,208.675 383.5,207.5 Z"/></g>
<g><path style="opacity:1" fill="#f4dddb" d="M 372.5,210.5 C 374.709,212.314 377.043,214.148 379.5,216C 378.534,217.678 377.201,218.345 375.5,218C 376.668,216.129 376.168,214.629 374,213.5C 373.107,214.711 372.274,214.711 371.5,213.5C 372.127,212.583 372.461,211.583 372.5,210.5 Z"/></g>
<g><path style="opacity:1" fill="#f3dad7" d="M 368.5,223.5 C 367.992,220.824 367.825,218.157 368,215.5C 368.98,217.059 369.813,218.726 370.5,220.5C 370.911,219.738 371.077,218.738 371,217.5C 374.111,220.651 373.278,222.651 368.5,223.5 Z"/></g>
<g><path style="opacity:1" fill="#f3dad7" d="M 368.5,223.5 C 367.945,225.729 366.611,227.395 364.5,228.5C 362.234,226.805 360.568,224.639 359.5,222C 359.734,220.268 360.734,219.434 362.5,219.5C 364.223,221.218 366.223,222.551 368.5,223.5 Z"/></g>
<g><path style="opacity:1" fill="#c45251" d="M 363.5,223.5 C 366.674,223.952 367.007,224.952 364.5,226.5C 363.614,225.675 363.281,224.675 363.5,223.5 Z"/></g>
<g><path style="opacity:1" fill="#c55551" d="M 361.5,220.5 C 363.337,220.639 363.67,221.306 362.5,222.5C 361.702,222.043 361.369,221.376 361.5,220.5 Z"/></g>
<g><path style="opacity:1" fill="#fdfaf9" d="M 401.5,225.5 C 404.69,227.923 406.856,230.923 408,234.5C 396.5,244 385,253.5 373.5,263C 371.631,264.602 369.631,265.602 367.5,266C 365.38,263.591 363.38,261.091 361.5,258.5C 374.904,247.481 388.237,236.481 401.5,225.5 Z"/></g>
<g><path style="opacity:1" fill="#f4dddb" d="M 356.5,224.5 C 357.164,225.648 357.331,226.981 357,228.5C 363.175,228.206 363.842,230.206 359,234.5C 359.333,232.833 359.667,231.167 360,229.5C 359.667,229.167 359.333,228.833 359,228.5C 356.934,231.298 355.434,230.965 354.5,227.5C 355.193,226.482 355.859,225.482 356.5,224.5 Z"/></g>
<g><path style="opacity:0.299" fill="#aa8169" d="M 315.5,226.5 C 316.162,228.304 316.495,230.304 316.5,232.5C 316.713,235.527 316.047,238.193 314.5,240.5C 315.314,235.881 315.647,231.214 315.5,226.5 Z"/></g>
<g><path style="opacity:1" fill="#f2dad8" d="M 348.5,230.5 C 349.164,231.648 349.331,232.981 349,234.5C 355.175,234.206 355.842,236.206 351,240.5C 350.667,238.953 351.167,237.62 352.5,236.5C 351.224,235.355 349.891,235.355 348.5,236.5C 345.86,234.465 345.86,232.465 348.5,230.5 Z"/></g>
<g><path style="opacity:1" fill="#f3dbd9" d="M 342.5,235.5 C 343.239,235.369 343.906,235.536 344.5,236C 342.993,236.837 342.493,238.004 343,239.5C 345.493,238.054 347.327,238.721 348.5,241.5C 347.863,243.303 346.697,244.636 345,245.5C 345.487,243.956 345.987,242.29 346.5,240.5C 344.227,241.735 342.394,241.402 341,239.5C 340.7,237.934 341.2,236.601 342.5,235.5 Z"/></g>
<g><path style="opacity:1" fill="#f3dbd8" d="M 335.5,241.5 C 336.002,239.915 337.002,239.415 338.5,240C 339.672,241.997 341.005,243.83 342.5,245.5C 341.904,248.246 340.237,249.08 337.5,248C 336.67,246.253 335.67,244.587 334.5,243C 334.57,242.235 334.903,241.735 335.5,241.5 Z"/></g>
<g><path style="opacity:1" fill="#c14845" d="M 335.5,241.5 C 337.337,241.639 337.67,242.306 336.5,243.5C 335.702,243.043 335.369,242.376 335.5,241.5 Z"/></g>
<g><path style="opacity:0.886" fill="#2db673" d="M 268.5,254.5 C 281.453,271.455 294.787,288.122 308.5,304.5C 284.893,285.402 261.393,266.069 238,246.5C 237.409,245.517 237.743,244.85 239,244.5C 249.106,247.368 258.939,250.701 268.5,254.5 Z"/></g>
<g><path style="opacity:1" fill="#bf4544" d="M 338.5,244.5 C 340.973,244.947 341.14,245.947 339,247.5C 338.517,246.552 338.351,245.552 338.5,244.5 Z"/></g>
<g><path style="opacity:1" fill="#f4dedc" d="M 330.5,244.5 C 332.977,245.12 332.977,246.12 330.5,247.5C 330.833,247.833 331.167,248.167 331.5,248.5C 335.612,246.776 337.112,248.11 336,252.5C 332.877,254.589 332.71,253.922 335.5,250.5C 333.647,250.08 331.813,249.747 330,249.5C 329.626,248.584 329.126,247.75 328.5,247C 329.381,246.292 330.047,245.458 330.5,244.5 Z"/></g>
<g><path style="opacity:1" fill="#f1d4d1" d="M 316.5,255.5 C 318.516,256.456 320.349,257.79 322,259.5C 322.667,260.5 322.667,261.5 322,262.5C 321.29,261.027 320.124,260.36 318.5,260.5C 318.36,262.124 319.027,263.29 320.5,264C 319.5,264.667 318.5,264.667 317.5,264C 316.782,262.013 315.782,260.179 314.5,258.5C 315.193,257.482 315.859,256.482 316.5,255.5 Z"/></g>
<g><path style="opacity:1" fill="#f5e2df" d="M 322.5,252.5 C 323.41,254.019 324.243,255.685 325,257.5C 326.438,253.753 327.938,253.92 329.5,258C 328.551,258.617 327.718,258.451 327,257.5C 326.311,258.357 325.478,259.023 324.5,259.5C 323.056,257.392 322.39,255.059 322.5,252.5 Z"/></g>
<g><path style="opacity:1" fill="#fdfaf9" d="M 358.5,260.5 C 359.239,260.369 359.906,260.536 360.5,261C 362.5,263.333 364.5,265.667 366.5,268C 354.833,277.667 343.167,287.333 331.5,297C 329.631,298.602 327.631,299.602 325.5,300C 323.38,297.591 321.38,295.091 319.5,292.5C 332.544,281.78 345.544,271.113 358.5,260.5 Z"/></g>
<g><path style="opacity:1" fill="#f3dad8" d="M 310.5,262.5 C 312.716,263.203 314.549,264.536 316,266.5C 317.281,265.353 317.614,265.687 317,267.5C 316.311,268.357 315.478,269.023 314.5,269.5C 313.756,268.009 313.09,266.509 312.5,265C 311.551,264.383 310.718,264.549 310,265.5C 309.53,264.423 309.697,263.423 310.5,262.5 Z"/></g>
<g><path style="opacity:1" fill="#f1d6d3" d="M 305.5,265.5 C 306.239,265.369 306.906,265.536 307.5,266C 305.993,266.837 305.493,268.004 306,269.5C 309.641,267.633 311.308,268.633 311,272.5C 310.311,273.357 309.478,274.023 308.5,274.5C 309.202,273.134 309.202,271.467 308.5,269.5C 306.902,271.973 305.402,271.973 304,269.5C 303.516,267.807 304.016,266.473 305.5,265.5 Z"/></g>
<g><path style="opacity:0.974" fill="#fdcb3c" d="M 234.5,315.5 C 238.182,315.335 241.848,315.501 245.5,316C 264.006,328.086 282.339,340.419 300.5,353C 307.966,357.155 315.966,359.489 324.5,360C 346.5,360.667 368.5,360.667 390.5,360C 394.065,357.822 394.399,355.156 391.5,352C 376.5,351.667 361.5,351.333 346.5,351C 333.386,345.942 329.886,337.108 336,324.5C 337.938,321.894 340.438,320.061 343.5,319C 376.143,317.115 408.809,317.115 441.5,319C 459.251,320.79 472.751,329.29 482,344.5C 494.398,367.19 504.565,390.857 512.5,415.5C 481.825,418.201 451.159,420.701 420.5,423C 415.381,415.554 408.381,410.887 399.5,409C 373.167,408.667 346.833,408.333 320.5,408C 310.626,407.198 301.292,404.532 292.5,400C 268.799,382.304 246.299,363.137 225,342.5C 219.686,330.47 222.852,321.47 234.5,315.5 Z"/></g>
<g><path style="opacity:0.933" fill="#fdcb3c" d="M 520.5,424.5 C 521.5,424.5 522.5,424.5 523.5,424.5C 523.5,433.5 523.5,442.5 523.5,451.5C 487.167,451.5 450.833,451.5 414.5,451.5C 414.5,445.833 414.5,440.167 414.5,434.5C 450.028,431.695 485.361,428.362 520.5,424.5 Z"/></g>
</svg>
