<?xml version="1.0" encoding="UTF-8"?>
<svg version="1.1" xmlns="http://www.w3.org/2000/svg" width="128" height="128">
<path d="M0 0 C2.17235074 0.01609149 4.34284192 0.00006813 6.51513672 -0.01904297 C25.50322169 -0.0542101 25.50322169 -0.0542101 32.09716797 5.39111328 C34.47535477 9.91202285 36.22501244 14.57994911 37.92529297 19.39111328 C38.28880859 20.37595703 38.65232422 21.36080078 39.02685547 22.37548828 C42.10979176 30.95207797 42.10979176 30.95207797 41.67529297 35.39111328 C39.67529297 37.39111328 39.67529297 37.39111328 36.63623047 37.58642578 C31.65576172 37.48876953 31.65576172 37.48876953 26.67529297 37.39111328 C26.67529297 44.32111328 26.67529297 51.25111328 26.67529297 58.39111328 C29.64529297 57.73111328 32.61529297 57.07111328 35.67529297 56.39111328 C40.09897278 56.06068105 44.50432628 56.06110612 48.93969727 56.07543945 C50.97385727 56.07859169 53.00654687 56.05509626 55.04052734 56.02978516 C74.56825863 56.02024547 74.56825863 56.02024547 81.15966797 61.43017578 C83.38387847 65.77541176 85.21203475 70.1974247 86.92529297 74.76611328 C87.28880859 75.68650391 87.65232422 76.60689453 88.02685547 77.55517578 C89.99534056 82.73539972 91.13343665 86.84757469 90.67529297 92.39111328 C87.79113414 93.83319269 85.25807768 93.48506215 82.05029297 93.45361328 C80.86177734 93.44458984 79.67326172 93.43556641 78.44873047 93.42626953 C77.07587891 93.40886719 77.07587891 93.40886719 75.67529297 93.39111328 C75.6857666 94.38030762 75.69624023 95.36950195 75.70703125 96.38867188 C75.74318316 100.05253492 75.76617579 103.71638214 75.78515625 107.38037109 C75.79522485 108.96731211 75.80888064 110.55423453 75.82617188 112.14111328 C75.85038298 114.41980575 75.86176719 116.69825334 75.87060547 118.97705078 C75.88092804 119.68856293 75.89125061 120.40007507 75.90188599 121.13314819 C75.90228719 122.88742993 75.79731506 124.64108037 75.67529297 126.39111328 C73.25142952 128.81497673 72.66467885 128.64321536 69.34912109 128.64990234 C68.4547937 128.65620667 67.56046631 128.66251099 66.63903809 128.66900635 C65.187453 128.66293365 65.187453 128.66293365 63.70654297 128.65673828 C62.71529419 128.65865173 61.72404541 128.66056519 60.70275879 128.66253662 C58.60457099 128.66389913 56.50637478 128.6601981 54.40820312 128.65185547 C51.18844751 128.64115699 47.96924989 128.65174864 44.74951172 128.66455078 C42.71435423 128.6632292 40.67919709 128.66066683 38.64404297 128.65673828 C37.67631958 128.66078674 36.70859619 128.66483521 35.71154785 128.66900635 C34.37005676 128.65954987 34.37005676 128.65954987 33.00146484 128.64990234 C32.21251831 128.64831116 31.42357178 128.64671997 30.61071777 128.64508057 C28.67529297 128.39111328 28.67529297 128.39111328 26.67529297 126.39111328 C26.50033691 123.88190483 26.44359728 121.48486387 26.47998047 118.97705078 C26.48281036 118.24741119 26.48564026 117.51777161 26.48855591 116.76602173 C26.49976295 114.432553 26.52486786 112.09946625 26.55029297 109.76611328 C26.56032212 108.18538965 26.56944808 106.60466002 26.57763672 105.02392578 C26.59970392 101.14617414 26.63423682 97.2687085 26.67529297 93.39111328 C25.30244141 93.40851563 25.30244141 93.40851563 23.90185547 93.42626953 C22.11908203 93.43980469 22.11908203 93.43980469 20.30029297 93.45361328 C18.52525391 93.47101563 18.52525391 93.47101563 16.71435547 93.48876953 C13.67529297 93.39111328 13.67529297 93.39111328 11.67529297 92.39111328 C12.02628188 87.03853235 12.82365691 82.59794882 14.72216797 77.56689453 C15.2688916 76.1057019 15.2688916 76.1057019 15.82666016 74.61499023 C16.10670898 73.88111084 16.38675781 73.14723145 16.67529297 72.39111328 C15.00974365 72.40682373 15.00974365 72.40682373 13.31054688 72.42285156 C9.19941418 72.45899277 5.08829558 72.48199224 0.97705078 72.50097656 C-0.8038977 72.5110476 -2.5848296 72.52470513 -4.36572266 72.54199219 C-6.92240486 72.56619241 -9.47886888 72.57758512 -12.03564453 72.58642578 C-12.83465179 72.59674835 -13.63365906 72.60707092 -14.45687866 72.6177063 C-16.41427923 72.61810555 -18.3711378 72.51352397 -20.32470703 72.39111328 C-22.32470703 70.39111328 -22.32470703 70.39111328 -22.55175781 67.13476562 C-22.55144085 65.74882033 -22.54012462 64.36285027 -22.52001953 62.97705078 C-22.51718964 62.24741119 -22.51435974 61.51777161 -22.51144409 60.76602173 C-22.50023705 58.432553 -22.47513214 56.09946625 -22.44970703 53.76611328 C-22.43967788 52.18538965 -22.43055192 50.60466002 -22.42236328 49.02392578 C-22.40029608 45.14617414 -22.36576318 41.2687085 -22.32470703 37.39111328 C-23.23994141 37.40271484 -24.15517578 37.41431641 -25.09814453 37.42626953 C-26.88091797 37.43980469 -26.88091797 37.43980469 -28.69970703 37.45361328 C-29.88306641 37.46521484 -31.06642578 37.47681641 -32.28564453 37.48876953 C-35.32470703 37.39111328 -35.32470703 37.39111328 -37.32470703 36.39111328 C-37.86650809 29.83532047 -35.96509488 24.81837187 -33.57470703 18.76611328 C-33.22666016 17.83798828 -32.87861328 16.90986328 -32.52001953 15.95361328 C-28.14860104 4.65268695 -28.14860104 4.65268695 -23.20654297 2.44482422 C-15.61004616 -0.01697704 -7.8990226 -0.06949287 0 0 Z " fill="#C1A0D4" transform="translate(37.32470703125,-0.39111328125)"/>
<path d="M0 0 C0.80566406 0.00322266 1.61132812 0.00644531 2.44140625 0.00976562 C3.70404297 0.02233398 3.70404297 0.02233398 4.9921875 0.03515625 C5.84167969 0.03966797 6.69117187 0.04417969 7.56640625 0.04882812 C9.66669659 0.06062751 11.7669508 0.07856319 13.8671875 0.09765625 C13.76277344 1.14566406 13.65835938 2.19367187 13.55078125 3.2734375 C13.95417109 8.1489764 15.2941561 9.12914312 18.9296875 12.28515625 C27.54767181 20.23862129 33.57398266 30.47987584 35.8671875 42.09765625 C35.4609375 44.9453125 35.4609375 44.9453125 34.8671875 47.09765625 C31.8971875 47.59265625 31.8971875 47.59265625 28.8671875 48.09765625 C26.52201249 44.45859158 25.01929863 40.93550137 23.6171875 36.84765625 C20.43821212 28.38315554 15.39273717 22.22771806 8.8671875 16.09765625 C8.4546875 16.61328125 8.0421875 17.12890625 7.6171875 17.66015625 C5.8671875 19.09765625 5.8671875 19.09765625 4.0234375 19.046875 C0.76111469 17.61074376 -0.44392109 15.29189876 -2.3828125 12.34765625 C-3.08921875 11.3009375 -3.795625 10.25421875 -4.5234375 9.17578125 C-6.1386976 6.08640028 -6.51177279 4.50829888 -6.1328125 1.09765625 C-3.8362755 -0.05061225 -2.54968083 -0.0179555 0 0 Z " fill="#5BE1C4" transform="translate(89.1328125,7.90234375)"/>
<path d="M0 0 C2.5 0.25 2.5 0.25 4.5 2.25 C5.13248664 4.06696162 5.70765553 5.90412585 6.25 7.75 C8.9884779 16.24029952 13.80583117 26.86427799 21.8125 31.625 C22.6478125 31.934375 22.6478125 31.934375 23.5 32.25 C23.83 31.26 24.16 30.27 24.5 29.25 C26.7265625 29.35546875 26.7265625 29.35546875 29.5 30.25 C31.21738628 32.36574908 32.52619302 34.23618683 33.875 36.5625 C34.24238281 37.14451172 34.60976563 37.72652344 34.98828125 38.32617188 C37.57034136 42.62798145 37.57034136 42.62798145 37.2265625 45.66796875 C36.98679688 46.19003906 36.74703125 46.71210937 36.5 47.25 C30.12641289 48.21205088 23.94070471 48.35655578 17.5 48.25 C16.56576355 45.23968256 16.45550089 44.38349732 17.5 41.25 C16.77554687 40.57195312 16.05109375 39.89390625 15.3046875 39.1953125 C5.62687146 29.95937529 -3.46256836 18.36309352 -4.7578125 4.48828125 C-4.37214041 1.13994628 -3.30555631 0.33055563 0 0 Z " fill="#5CE1C4" transform="translate(8.5,71.75)"/>
<path d="M0 0 C4.21342607 -0.07509534 8.42648036 -0.12903946 12.64038086 -0.16479492 C14.06883545 -0.1797265 15.49724548 -0.20007938 16.92553711 -0.22631836 C37.64432375 -0.59694555 37.64432375 -0.59694555 44.421875 5 C46.8000618 9.52090957 48.54971947 14.18883583 50.25 19 C50.61351562 19.98484375 50.97703125 20.9696875 51.3515625 21.984375 C54.43449879 30.56096469 54.43449879 30.56096469 54 35 C52 37 52 37 49.6171875 37.1953125 C48.25980469 37.16050781 48.25980469 37.16050781 46.875 37.125 C45.96492188 37.10695312 45.05484375 37.08890625 44.1171875 37.0703125 C43.41851562 37.04710937 42.71984375 37.02390625 42 37 C42.49628906 36.59523437 42.99257812 36.19046875 43.50390625 35.7734375 C45.17784804 34.12532449 45.17784804 34.12532449 45.21484375 31.9765625 C43.71428143 18.36573547 43.71428143 18.36573547 36.5 7.3125 C34.1324118 5.57447503 31.64482782 4.27021336 29 3 C28.773125 3.7425 28.54625 4.485 28.3125 5.25 C26.72391487 8.57846408 25.05001134 9.96665911 22 12 C16.34773109 13.76341447 10.91270037 13.99177056 5.625 11.25 C1.46341463 7.68292683 1.46341463 7.68292683 0 5 C-0.04456059 3.33392913 -0.04940168 1.66593435 0 0 Z " fill="#B28AC9" transform="translate(25,0)"/>
<path d="M0 0 C4.05264618 -0.07526343 8.1050108 -0.12911541 12.15820312 -0.16479492 C13.53132226 -0.17969923 14.90439539 -0.20002997 16.27734375 -0.22631836 C37.58515669 -0.62350347 37.58515669 -0.62350347 44.484375 5.0390625 C46.7085855 9.38429848 48.53674178 13.80631141 50.25 18.375 C50.61351562 19.29539062 50.97703125 20.21578125 51.3515625 21.1640625 C53.3200476 26.34428644 54.45814369 30.45646141 54 36 C51.59454362 37.20272819 50.05003047 37.10071472 47.375 37.0625 C46.14910156 37.04896484 46.14910156 37.04896484 44.8984375 37.03515625 C44.27195313 37.02355469 43.64546875 37.01195312 43 37 C43.66 36.01 44.32 35.02 45 34 C45.4599428 26.05832093 43.32905966 15.14196958 38.3203125 8.91015625 C35.43853514 6.38087097 32.44929364 4.65656866 29 3 C28.773125 3.7425 28.54625 4.485 28.3125 5.25 C26.733845 8.55765809 25.00385901 9.94858409 22 12 C16.7935264 13.7354912 11.85065911 13.66344383 6.6875 11.8125 C3.70251776 9.79937244 1.89633887 8.06331663 0 5 C-0.1015625 2.3359375 -0.1015625 2.3359375 0 0 Z " fill="#B38AC9" transform="translate(74,56)"/>
<path d="M0 0 C0.02464513 6.1055471 0.04283371 12.21106551 0.05493164 18.31665039 C0.05997288 20.39543156 0.06680574 22.47420916 0.07543945 24.55297852 C0.08751422 27.53402586 0.09323024 30.51502649 0.09765625 33.49609375 C0.10281754 34.43150497 0.10797882 35.3669162 0.11329651 36.33067322 C0.11337204 37.19149002 0.11344757 38.05230682 0.11352539 38.93920898 C0.115746 39.70087875 0.11796661 40.46254852 0.12025452 41.24729919 C0 43 0 43 -1 44 C-2.85287502 44.07226502 -4.70833878 44.0838122 -6.5625 44.0625 C-7.57441406 44.05347656 -8.58632812 44.04445312 -9.62890625 44.03515625 C-10.41136719 44.02355469 -11.19382812 44.01195312 -12 44 C-11.51337891 43.51281494 -11.02675781 43.02562988 -10.52539062 42.52368164 C-8.38403852 38.98092288 -8.57816825 35.64011956 -8.59375 31.62109375 C-8.58291382 30.8126149 -8.57207764 30.00413605 -8.56091309 29.17115784 C-8.51508319 25.71906256 -8.50355198 22.26704242 -8.48876953 18.81469727 C-8.47309637 16.29155571 -8.44010563 13.76904612 -8.40625 11.24609375 C-8.40927124 10.46479599 -8.41229248 9.68349823 -8.41540527 8.87852478 C-8.34160549 3.56762346 -8.34160549 3.56762346 -6.78710938 0.98461914 C-4.42981565 -0.31414665 -2.64783814 -0.21468958 0 0 Z " fill="#B289C9" transform="translate(112,84)"/>
<path d="M0 0 C1.890625 0.21484375 1.890625 0.21484375 4 1 C5.046875 3.06640625 5.046875 3.06640625 5.75 5.5625 C5.99234375 6.38878906 6.2346875 7.21507813 6.484375 8.06640625 C6.65453125 8.70449219 6.8246875 9.34257813 7 10 C8.53521956 7.69717067 9.58357909 5.82137765 10.625 3.3125 C11.07875 2.219375 11.5325 1.12625 12 0 C13.32 0.33 14.64 0.66 16 1 C16.50921328 3.18537367 17.00694437 5.37342431 17.5 7.5625 C17.7784375 8.78066406 18.056875 9.99882813 18.34375 11.25390625 C18.98637554 14.92222707 19.11474823 18.28502603 19 22 C17.68 21.67 16.36 21.34 15 21 C14.67 18.03 14.34 15.06 14 12 C13.34 12 12.68 12 12 12 C11.34 14.97 10.68 17.94 10 21 C8.68 21.33 7.36 21.66 6 22 C5.49596232 20.70990357 4.99690074 19.41786211 4.5 18.125 C4.2215625 17.40570313 3.943125 16.68640625 3.65625 15.9453125 C3 14 3 14 3 12 C2.34 12 1.68 12 1 12 C0.67 14.97 0.34 17.94 0 21 C-1.32 21 -2.64 21 -4 21 C-3.71766639 18.24874911 -3.42452667 15.49938663 -3.125 12.75 C-3.04636719 11.97269531 -2.96773438 11.19539063 -2.88671875 10.39453125 C-2.09573623 3.27568856 -2.09573623 3.27568856 0 0 Z " fill="#DBE5EE" transform="translate(81,77)"/>
<path d="M0 0 C0.94875 0.04125 1.8975 0.0825 2.875 0.125 C2.99897147 4.59064301 3.08950992 9.05536439 3.1496582 13.5222168 C3.17474109 15.04029801 3.2088166 16.55825918 3.25219727 18.07592773 C3.31313293 20.26315965 3.34126895 22.44879039 3.36328125 24.63671875 C3.38946533 25.95115967 3.41564941 27.26560059 3.44262695 28.61987305 C2.73652411 32.98009606 1.18110339 34.31697214 -2.125 37.125 C-3.29169786 39.05942454 -3.29169786 39.05942454 -3.9375 40.9375 C-4.329375 41.989375 -4.72125 43.04125 -5.125 44.125 C-6.445 43.795 -7.765 43.465 -9.125 43.125 C-8.639104 42.63854004 -8.15320801 42.15208008 -7.65258789 41.65087891 C-5.50610494 38.10165202 -5.68419009 34.7396867 -5.68359375 30.7109375 C-5.67038589 29.90008698 -5.65717804 29.08923645 -5.64356995 28.2538147 C-5.60273232 25.66917437 -5.58101158 23.08488973 -5.5625 20.5 C-5.5387319 17.90807639 -5.51067012 15.3164887 -5.47071838 12.72476196 C-5.4463143 11.11336996 -5.43149403 9.5017991 -5.42710876 7.89022827 C-5.31963795 0.21278552 -5.31963795 0.21278552 0 0 Z " fill="#B289C9" transform="translate(60.125,27.875)"/>
<path d="M0 0 C1.32 0 2.64 0 4 0 C4 5.94 4 11.88 4 18 C5.98 18 7.96 18 10 18 C10 19.32 10 20.64 10 22 C8.52093108 22.02689216 7.04172517 22.04634621 5.5625 22.0625 C4.32693359 22.07990234 4.32693359 22.07990234 3.06640625 22.09765625 C1 22 1 22 0 21 C-0.08685603 19.43827255 -0.10702219 17.87270656 -0.09765625 16.30859375 C-0.09443359 15.36435547 -0.09121094 14.42011719 -0.08789062 13.44726562 C-0.07951172 12.45404297 -0.07113281 11.46082031 -0.0625 10.4375 C-0.05798828 9.44041016 -0.05347656 8.44332031 -0.04882812 7.41601562 C-0.03700007 4.94395151 -0.02051849 2.47200482 0 0 Z " fill="#DBE5EE" transform="translate(34,26)"/>
<path d="M0 0 C1.32 0 2.64 0 4 0 C4 2.97 4 5.94 4 9 C2.35 9 0.7 9 -1 9 C-1.09765625 2.84765625 -1.09765625 2.84765625 -1 1 C-0.67 0.67 -0.34 0.34 0 0 Z " fill="#B38BCA" transform="translate(12,28)"/>
<path d="M0 0 C1.32 0 2.64 0 4 0 C4 2.64 4 5.28 4 8 C2.35 8 0.7 8 -1 8 C-1.04241723 5.66705225 -1.04092937 3.33297433 -1 1 C-0.67 0.67 -0.34 0.34 0 0 Z " fill="#B28AC9" transform="translate(61,84)"/>
</svg>
