<?xml version="1.0" encoding="utf-8"?>
<!-- Generator: Adobe Illustrator 22.1.0, SVG Export Plug-In . SVG Version: 6.00 Build 0)  -->
<svg version="1.1" id="Layer_1" xmlns="http://www.w3.org/2000/svg" xmlns:xlink="http://www.w3.org/1999/xlink" x="0px" y="0px"
	 viewBox="0 0 210 210" width="24" height="24" xml:space="preserve">
<style type="text/css">
	.st0{fill:#221F1F;}
	.st1{fill:#05BC52;}
</style>
<g>
	<g>
		<path class="st0" d="M206.7,103.7c-0.3,57-46.7,103-103.8,102.7C45.8,206.2-0.3,159.7,0,102.7C0.3,45.7,46.8-0.3,103.8,0
			C160.9,0.3,207,46.7,206.7,103.7"/>
		<path class="st1" d="M54.2,79.3c3.5,0.8,7.4-3.5,8.7-9.6c1.3-6-0.4-11.6-3.9-12.3c-2.4-0.5-4.9,1.3-6.7,4.3
			c1.6,0.8,2.4,2.8,1.6,4.5c-0.7,1.5-2.3,2.4-3.9,2C49.3,73.8,51,78.6,54.2,79.3L54.2,79.3z M37.4,66.6c2.8-15,11.5-25.9,19.4-24.4
			c7.9,1.5,12,14.9,9.2,29.9c-2.8,15-11.5,25.9-19.4,24.4C38.7,95,34.6,81.6,37.4,66.6L37.4,66.6z M174.1,79.3
			c-88.3,59-149,29.1-149,29.1c-0.9,20.5,34.2,83.5,76.2,84.3C143.3,193.4,174.1,79.3,174.1,79.3L174.1,79.3z M46,99
			c9.2,1.8,19.3-10.1,22.4-26.4c3.1-16.3-1.9-31-11.1-32.8C48.1,38,38.1,49.9,35,66.2C31.8,82.5,36.8,97.2,46,99L46,99z M77.7,90.6
			c3.1-3.5,6.6-6.8,10.7-9.9c18.2-14,38.2-17.5,44.6-7.8c2.5,3.8,2.6,9,0.7,14.7c6.5-10.7,8.6-20.6,4.5-26.1
			c-6.7-9.1-27.6-2.9-46.6,14C86.2,80.3,81.5,85.5,77.7,90.6L77.7,90.6z M98,45.9c14.6-9.9,39.7-15.3,53.1,5.3
			C143,3.8,108,31.1,98,45.9L98,45.9z M204,103.7c-0.3,55.5-45.5,100.2-101.1,100C47.3,203.4,2.8,158.2,2.8,102.8
			c0-36,17.9-61.8,35-75.7c20.9-17,35.1-3.9,40.1,5.9c-0.6-4.2-2.3-16.2-7-24.9c10.3-3.5,21.3-5.4,32.8-5.4
			C159.4,3,204.2,48.2,204,103.7L204,103.7z M140.5,154.4c-10.9,19.6-24.5,35.6-39.7,35.3c-9.4-0.2-18.4-3.8-26.7-9.3
			C77,175.5,93.4,151.6,140.5,154.4"/>
	</g>
</g>
</svg>
